<svg width="275" height="107" viewBox="0 0 275 107" fill="none" xmlns="http://www.w3.org/2000/svg">
<path d="M4.77892 73.6268C4.38443 72.0343 4.16861 70.3682 4.13144 68.6285C4.13564 68.2978 4.15303 67.7056 4.18361 66.852C4.21419 65.9985 4.25286 65.0258 4.29962 63.9341C4.39255 62.8354 4.50257 61.6871 4.62967 60.4891C4.75678 59.2911 4.89587 58.1857 5.04695 57.1728C5.2442 56.1531 5.43935 55.2987 5.6324 54.6098C5.86562 53.8678 6.1408 53.4497 6.45795 53.3556C6.73493 53.3146 7.11323 53.3293 7.59285 53.3998C8.11264 53.4172 8.41959 53.6076 8.51372 53.971C8.58386 54.1493 8.59375 54.4072 8.54339 54.7449C8.10693 56.4603 7.78888 58.1819 7.58923 59.9095C7.43575 61.6302 7.28227 63.351 7.12878 65.0717C7.05384 66.3092 7.02506 67.5398 7.04244 68.7636C7.10599 69.9805 7.26186 71.1838 7.51006 72.3734C7.52205 72.466 7.54603 72.6511 7.582 72.9288C7.65814 73.1533 7.73728 73.4011 7.81941 73.6719C7.90154 73.9427 7.98068 74.1905 8.05682 74.415C8.17313 74.5865 8.30053 74.6619 8.43902 74.6414C8.53134 74.6278 8.66084 74.5378 8.82751 74.3717C8.98818 74.1592 9.14886 73.9467 9.30953 73.7343C9.51637 73.515 9.70012 73.2991 9.8608 73.0867C10.0155 72.8279 10.1129 72.672 10.1531 72.6189C11.059 71.2584 11.9127 69.8585 12.7143 68.4191C13.5158 66.9798 14.3174 65.5404 15.119 64.101C15.9607 62.6086 16.8084 61.1624 17.6622 59.7624C18.5621 58.3557 19.5342 56.9618 20.5786 55.5808C20.7794 55.3153 21.0033 55.0463 21.2503 54.7739C21.4913 54.4552 21.7354 54.1596 21.9824 53.8872C22.3097 53.5086 22.7042 53.2851 23.1658 53.2168C23.489 53.1689 23.7228 53.1579 23.8673 53.1837C24.688 53.3452 25.2117 53.5742 25.4383 53.8708C25.6649 54.1675 25.7168 54.7494 25.5939 55.6166C25.4044 57.0597 25.215 58.5027 25.0255 59.9458C24.8822 61.3821 24.7159 62.8217 24.5264 64.2648C24.2602 66.5682 24.1526 68.8246 24.2036 71.034C24.2485 73.197 24.4811 75.3559 24.9014 77.5105C24.9194 77.6494 24.9724 77.8774 25.0606 78.1945C25.1487 78.5116 25.2398 78.8519 25.3339 79.2153C25.4682 79.5256 25.6226 79.8093 25.7971 80.0665C25.9715 80.3237 26.1511 80.4386 26.3357 80.4112C26.4281 80.3976 26.5576 80.3076 26.7242 80.1415C26.8849 79.929 27.0426 79.6934 27.1973 79.4347C27.3981 79.1691 27.5789 78.9301 27.7395 78.7176C27.9404 78.452 28.0579 78.2696 28.0921 78.1702C28.7509 77.0821 29.3637 76.0009 29.9302 74.9265C30.5369 73.799 31.1667 72.668 31.8196 71.5337C32.4263 70.4062 33.013 69.3052 33.5795 68.2308C34.1401 67.1101 34.7237 65.9861 35.3305 64.8585C35.5193 64.5004 35.6881 64.1688 35.8368 63.8638C36.0316 63.552 36.2235 63.217 36.4123 62.8588C36.6353 62.4013 36.9777 62.1384 37.4393 62.07C37.6701 62.0359 37.9069 62.048 38.1497 62.1064C38.4387 62.1579 38.7046 62.2129 38.9474 62.2713C39.439 62.4343 39.5271 62.7514 39.2118 63.2226C38.7196 64.1445 38.2274 65.0664 37.7352 65.9883C37.2429 66.9102 36.7507 67.8321 36.2585 68.754C35.1596 70.8034 34.0948 72.7534 33.0642 74.604C32.0276 76.4083 30.8556 78.2563 29.548 80.1479C29.1061 80.7322 28.5801 81.211 27.9697 81.5843C27.3594 81.9577 26.708 82.1956 26.0156 82.2982C25.3231 82.4007 24.699 82.3044 24.1433 82.0094C23.5875 81.7143 23.1493 81.2367 22.8285 80.5767C22.4376 79.7384 22.1391 78.8864 21.9328 78.0208C21.7668 77.102 21.6238 76.1798 21.5039 75.2542C21.2161 73.0328 21.1271 70.7112 21.2368 68.2894C21.3927 65.8608 21.6589 63.5573 22.0354 61.379C22.1139 60.8957 22.1493 60.4424 22.1415 60.019C22.1739 59.5426 22.2093 59.0892 22.2476 58.6591C22.2698 58.4671 22.1886 58.3848 22.0039 58.4121C21.8253 58.4857 21.6556 58.6288 21.4949 58.8412C21.3343 59.0537 21.2167 59.2362 21.1424 59.3887C20.598 60.2711 20.0336 61.1801 19.449 62.1157C18.8645 63.0513 18.303 63.9834 17.7647 64.9121C17.0314 66.1527 16.2982 67.3933 15.565 68.6338C14.8719 69.8213 14.1558 71.0122 13.4166 72.2065C13.1474 72.6708 12.835 73.1652 12.4795 73.6895C12.118 74.1675 11.7304 74.6258 11.3167 75.0644C10.9031 75.503 10.4573 75.8756 9.97949 76.1822C9.50167 76.4887 8.98578 76.683 8.43182 76.765C7.23157 76.9427 6.38174 76.7384 5.88234 76.152C5.4231 75.5125 5.05529 74.6707 4.77892 73.6268ZM39.9945 101.595C38.961 101.607 38.1804 101.392 37.6528 100.952C37.1312 100.557 36.9942 99.6813 37.2418 98.324C37.5902 96.2913 38.342 94.1047 39.4973 91.7639C40.6526 89.4232 41.9754 87.1048 43.4658 84.8087C45.0024 82.5059 46.5771 80.3153 48.1898 78.237C49.8487 76.1519 51.3128 74.3786 52.582 72.9172C53.5238 71.8344 54.0754 70.6443 54.2367 69.3469C54.3656 68.5259 54.4483 67.7118 54.4849 66.9046C54.5155 66.051 54.4336 65.2377 54.2394 64.4646C54.1093 63.8235 53.7903 63.5406 53.2825 63.6158C52.3593 63.7525 51.3134 64.2139 50.1449 65.0001C48.9704 65.7399 48.0469 66.4191 47.3742 67.0375C47.1614 67.2106 46.9285 67.4101 46.6755 67.6362C46.4686 67.8555 46.2588 68.0517 46.0459 68.2247C45.8793 68.3909 45.6344 68.4979 45.3112 68.5457C44.8958 68.6072 44.4914 68.5728 44.0981 68.4423C43.745 68.2588 43.5213 67.9853 43.4272 67.6219C43.3571 67.4436 43.4023 67.2482 43.563 67.0358C43.7579 66.7239 43.9326 66.4386 44.0873 66.1799C44.236 65.8749 44.4108 65.5896 44.6116 65.324C45.162 64.4878 45.9042 63.3167 46.8382 61.8105C47.8185 60.2976 48.7666 58.7186 49.6827 57.0736C50.6449 55.4218 51.4948 53.8102 52.2322 52.2388C52.9696 50.6674 53.3707 49.4053 53.4355 48.4523C53.466 47.5988 53.2274 47.2096 52.7196 47.2848C52.6273 47.2985 52.5119 47.3155 52.3734 47.336C52.2811 47.3497 52.1486 47.4165 51.9759 47.5364C50.8638 48.0312 49.7214 48.8371 48.5487 49.9541C47.3701 51.0248 46.2324 52.2309 45.1359 53.5724C44.0795 54.8608 43.0984 56.1853 42.1925 57.5457C41.3328 58.8994 40.6427 60.11 40.1224 61.1775C39.9395 61.582 39.7767 61.9598 39.634 62.3111C39.4914 62.6624 39.447 63.0463 39.5009 63.4628C39.5267 64.025 39.2626 64.3471 38.7087 64.4291C38.247 64.4975 37.8166 64.4433 37.4173 64.2666C36.6829 64.0451 36.4263 63.5171 36.6475 62.6825C36.8627 61.8016 37.2506 60.8009 37.8112 59.6802C38.4119 58.5064 39.105 57.3189 39.8904 56.1178C40.7159 54.8636 41.6167 53.6453 42.5927 52.4631C43.5628 51.2347 44.5478 50.1219 45.5478 49.1248C46.594 48.1209 47.5919 47.2893 48.5415 46.6298C49.5374 45.9636 50.4507 45.5689 51.2817 45.4459C52.2049 45.3092 53.0428 45.421 53.7952 45.7813C54.5476 46.1416 55.1363 46.6912 55.5614 47.4301C55.9163 47.9907 56.0323 48.7046 55.9094 49.5718C55.7565 50.2077 55.6036 50.8435 55.4508 51.4793C55.2919 52.0688 55.0638 52.6686 54.7664 53.2786C54.2178 54.4919 53.6201 55.6888 52.9732 56.8694C52.3263 58.0501 51.6794 59.2307 51.0325 60.4113C50.8778 60.67 50.7001 60.9322 50.4992 61.1978C50.3386 61.4102 50.2792 61.6784 50.3212 62.0024C50.4195 62.035 50.561 62.0376 50.7456 62.0103C51.9459 61.8326 52.9102 61.8313 53.6387 62.0065C54.3611 62.1354 54.9399 62.427 55.3752 62.8814C55.8104 63.3358 56.1483 63.9462 56.3887 64.7124C56.6231 65.4324 56.8554 66.3178 57.0856 67.3685C57.4148 67.367 57.6597 67.26 57.8203 67.0475C57.981 66.8351 58.1648 66.6192 58.3716 66.3999C59.693 64.9779 61.0725 63.6416 62.5101 62.3911C63.9418 61.0943 65.3966 59.7941 66.8744 58.4904C67.1274 58.2643 67.2941 58.0981 67.3744 57.9919C67.6334 57.812 67.8552 57.7085 68.0399 57.6811C68.3169 57.6401 68.5857 57.7182 68.8465 57.9154C69.1535 58.1058 69.4113 58.2799 69.6199 58.4377C70.0432 58.7995 70.0249 59.2032 69.5651 59.6486C67.4367 61.3787 65.3927 63.2143 63.4328 65.1553C61.4669 67.0501 59.5563 69.0074 57.7007 71.0273C56.799 72.057 56.2556 73.128 56.0703 74.2402C55.891 75.3988 55.537 76.8427 55.0082 78.5718C54.5256 80.2941 53.8934 82.1329 53.1116 84.0882C52.382 86.0829 51.5109 88.075 50.4983 90.0645C49.5318 92.0471 48.4722 93.8548 47.3193 95.4877C46.2185 97.16 45.0327 98.5384 43.7617 99.6227C42.5428 100.747 41.2871 101.404 39.9945 101.595ZM40.1133 99.2431C40.1492 99.5208 40.2826 99.6425 40.5134 99.6084C40.5596 99.6015 40.5797 99.575 40.5737 99.5287C40.6198 99.5219 40.666 99.515 40.7122 99.5082C41.9892 98.4701 43.178 97.1149 44.2788 95.4426C45.3855 93.8165 46.408 92.0851 47.3463 90.2481C48.3307 88.4043 49.1937 86.5314 49.9353 84.6292C50.6829 82.7733 51.31 81.0768 51.8166 79.5396C51.879 79.2945 51.9414 79.0494 52.0037 78.8044C52.1182 78.5988 52.1143 78.3871 51.992 78.1693C51.8014 78.1504 51.6659 78.194 51.5855 78.3003C51.5112 78.4528 51.4339 78.5822 51.3535 78.6884C50.504 79.7575 49.4194 81.1916 48.0999 82.9907C46.7863 84.836 45.5048 86.7473 44.2554 88.7247C43.0581 90.7415 42.0395 92.6846 41.1996 94.5542C40.3657 96.47 40.0035 98.033 40.1133 99.2431ZM101.912 26.4176C102.444 26.5275 102.792 26.8533 102.956 27.395C103.161 27.8836 103.111 28.4098 102.808 28.9735C102.733 29.126 102.63 29.2357 102.498 29.3025C102.359 29.323 102.221 29.3435 102.082 29.364C101.897 29.3913 101.779 29.3853 101.727 29.3458C101.247 29.2753 100.774 29.2511 100.306 29.2732C99.8845 29.2884 99.4429 29.3302 98.9813 29.3985C98.612 29.4532 98.2687 29.5276 97.9516 29.6217C97.6285 29.6696 97.2852 29.744 96.9219 29.8449C95.6413 30.1289 94.3898 30.4556 93.1674 30.8253C91.939 31.1487 90.6904 31.4986 89.4218 31.8751C89.191 31.9092 88.9863 31.9631 88.8076 32.0368C88.629 32.1104 88.4272 32.1874 88.2024 32.2679C87.8913 32.4083 87.7336 32.6439 87.7294 32.9747C87.7072 33.1666 87.685 33.3586 87.6628 33.5505C87.6868 33.7356 87.6907 33.9473 87.6745 34.1856C87.6427 37.209 87.611 40.2324 87.5792 43.2558C87.5414 46.233 87.4805 49.2136 87.3966 52.1975L87.3273 52.2078C87.2518 54.5302 87.1733 56.8294 87.0917 59.1056C87.0563 61.3748 86.9979 63.6475 86.9163 65.9237C86.8857 66.7772 86.8783 67.6273 86.8938 68.474C86.9496 69.2676 86.9823 70.0646 86.9919 70.8651C86.9913 71.95 86.4139 72.5779 85.2598 72.7488C85.029 72.7829 84.7892 72.7477 84.5404 72.643C84.2976 72.5846 84.1462 72.3241 84.0862 71.8613C84.0946 71.1997 84.077 70.5184 84.0332 69.8173C83.9894 69.1163 83.9718 68.435 83.9801 67.7734C84.0809 63.4662 84.1876 59.2053 84.3003 54.9907C84.4592 50.7693 84.589 46.505 84.6898 42.1978C84.7185 40.9672 84.7242 39.74 84.7069 38.5162C84.6835 37.2462 84.6862 35.9958 84.715 34.7652C84.7431 34.6195 84.7392 34.4079 84.7033 34.1302C84.6553 33.76 84.5591 33.5619 84.4146 33.5362C84.3103 33.4573 84.0966 33.4418 83.7734 33.4896C82.8681 33.7651 81.9799 33.991 81.1088 34.1671C80.2377 34.3432 79.3636 34.4962 78.4865 34.6261C77.3786 34.7901 76.2907 34.9276 75.223 35.0385C74.1031 35.11 72.9972 35.1086 71.9055 35.0344C71.2874 34.9844 70.7958 34.8213 70.4307 34.5452C70.0194 34.2759 69.7487 33.8208 69.6186 33.1797C69.5407 32.578 69.7094 32.2465 70.1249 32.1849C70.2172 32.1713 70.2895 32.1842 70.3416 32.2236C72.5251 32.372 74.794 32.2719 77.1484 31.9234C79.3642 31.5953 81.5159 31.1353 83.6035 30.5432C84.0531 30.3823 84.3382 30.2222 84.4587 30.0628C84.5792 29.9035 84.6586 29.6087 84.697 29.1785C84.7132 28.9403 84.7063 28.7055 84.6763 28.4741C84.6925 28.2358 84.7087 27.9976 84.7249 27.7594C84.7453 27.1903 85.0384 26.9111 85.6044 26.9216C85.795 26.9406 85.9857 26.9595 86.1763 26.9785C86.361 26.9511 86.5516 26.9701 86.7483 27.0353C87.286 27.1915 87.5678 27.5507 87.5936 28.1129C87.6014 28.5363 87.6374 28.814 87.7015 28.946C87.8118 29.0711 87.9824 29.1166 88.2132 29.0825C88.444 29.0483 88.6488 28.9944 88.8274 28.9208C89.6925 28.6984 90.5346 28.4794 91.3535 28.2638C92.1665 28.0019 93.0055 27.7598 93.8706 27.5374C94.6896 27.3218 95.4885 27.1328 96.2672 26.9703C97.0922 26.801 97.9171 26.6317 98.7421 26.4624C99.296 26.3804 99.8299 26.3249 100.344 26.296C100.858 26.2671 101.38 26.3076 101.912 26.4176ZM114.719 47.445C114.678 47.4981 114.667 47.5941 114.685 47.7329C114.356 47.7345 114.051 47.9212 113.77 48.293C113.173 49.136 112.664 50.1076 112.242 51.2077C111.86 52.2548 111.553 53.3379 111.322 54.457C111.091 55.5761 110.908 56.7115 110.775 57.8633C110.688 59.0082 110.638 60.0768 110.626 61.0692C110.628 63.9932 111.319 66.6031 112.699 68.8987C112.821 69.1164 112.94 69.311 113.057 69.4825C113.219 69.6471 113.358 69.8151 113.475 69.9866C113.754 70.3226 114.078 70.4633 114.447 70.4087C115.047 70.3198 115.68 69.943 116.347 69.2783C117.066 68.653 117.747 67.9155 118.389 67.0657C119.038 66.2621 119.615 65.4457 120.119 64.6163C120.663 63.7339 121.067 63.0374 121.33 62.5267C121.445 62.3211 121.536 62.1189 121.604 61.9201C121.719 61.7145 121.715 61.5028 121.593 61.2851C120.969 61.1888 120.344 61.0925 119.72 60.9963C119.136 60.8469 118.564 60.6015 118.002 60.2602C116.363 59.2293 115.178 57.8953 114.449 56.2581C113.765 54.6141 113.52 52.7166 113.711 50.5657C113.738 50.0429 113.816 49.5596 113.947 49.1158C114.118 48.6188 114.364 48.1579 114.685 47.7329C114.673 47.6404 114.667 47.5941 114.667 47.5941C114.707 47.541 114.725 47.4913 114.719 47.445ZM123.259 58.3498C124.007 56.4939 124.616 54.6585 125.086 52.8437C125.603 51.022 125.851 49.1221 125.83 47.1442C125.803 46.2049 125.602 45.3856 125.229 44.6861C124.839 43.8478 124.205 43.4936 123.327 43.6234C122.497 43.7464 121.71 44.028 120.967 44.4682C120.224 44.9083 119.542 45.4573 118.922 46.1152C118.301 46.7731 117.762 47.5133 117.304 48.3358C116.886 49.1051 116.587 49.8806 116.406 50.6621C116.078 52.1256 116.044 53.4985 116.304 54.7807C116.558 56.0166 117.063 57.1917 117.819 58.3062C118.615 59.3675 119.752 59.7888 121.229 59.5701C121.645 59.5086 122.031 59.4042 122.389 59.257C122.792 59.1029 123.082 58.8005 123.259 58.3498ZM115.665 46.0314C116.336 45.0359 117.137 44.139 118.068 43.3407C119.046 42.5356 120.135 42.0442 121.336 41.8665C123.09 41.6068 124.602 42.0197 125.872 43.1053C127.188 44.1839 127.979 45.5761 128.247 47.2816C128.444 48.4317 128.452 49.5861 128.273 50.7447C128.087 51.857 127.859 52.9992 127.587 54.1714C127.497 54.5622 127.363 54.9829 127.186 55.4336C127.003 55.838 126.985 56.2416 127.131 56.6445C127.547 56.583 128.094 56.2661 128.773 55.694C129.451 55.1218 130.147 54.5 130.86 53.8284C131.567 53.1106 132.207 52.4262 132.782 51.7751C133.396 51.071 133.847 50.5561 134.134 50.2306C134.502 49.7989 134.869 49.3671 135.237 48.9354C135.604 48.5036 135.972 48.0719 136.339 47.6401C136.753 47.2015 137.052 46.9686 137.237 46.9412C137.514 46.9002 137.783 46.9783 138.043 47.1756C138.298 47.3265 138.51 47.5074 138.678 47.7183C139.102 48.0802 139.066 48.5335 138.572 49.0783C137.763 50.0943 136.95 51.0872 136.135 52.0569C135.32 53.0267 134.455 53.9801 133.542 54.9172C132.501 55.9674 131.403 56.9318 130.247 57.8106C129.084 58.643 127.86 59.3666 126.576 59.9813C125.729 60.3426 125.108 61.0005 124.714 61.955C124.274 62.9163 123.725 63.941 123.066 65.0291C122.453 66.1103 121.736 67.1126 120.915 68.0361C120.145 68.999 119.263 69.8136 118.267 70.4798C117.323 71.1856 116.298 71.6204 115.19 71.7845C113.205 72.0783 111.611 71.3946 110.407 69.7332C108.803 67.518 107.95 64.9321 107.85 61.9754C107.848 61.5984 107.843 61.1982 107.835 60.7748C107.828 60.3514 107.82 59.9281 107.812 59.5047C107.794 59.3659 107.713 59.2836 107.568 59.2578C107.522 59.2646 107.479 59.2946 107.439 59.3477C107.393 59.3546 107.323 59.3648 107.231 59.3785C107.064 59.5447 106.749 60.0159 106.285 60.7921C105.861 61.5152 105.366 62.4139 104.799 63.4883C104.233 64.5627 103.606 65.7168 102.919 66.9505C102.278 68.1774 101.677 69.3512 101.117 70.4719C100.562 71.6389 100.059 72.6567 99.6069 73.5255C99.1548 74.3943 98.8574 75.0043 98.7148 75.3556C98.5037 75.9057 98.1674 76.2149 97.7058 76.2833C97.3364 76.3379 96.9782 76.2966 96.6311 76.1594C96.284 76.0221 96.0403 75.7751 95.9 75.4186C95.888 75.326 95.8961 75.2069 95.9243 75.0612C95.9123 74.9687 95.9003 74.8761 95.8883 74.7835C96.1377 70.1714 96.367 65.5857 96.5763 61.0267C96.8317 56.4608 97.061 51.8752 97.2643 47.2698C97.3188 46.6014 97.3764 45.9561 97.437 45.334C97.4915 44.6655 97.5461 43.9971 97.6006 43.3287C97.6672 42.7528 97.9313 42.4307 98.3929 42.3624C98.4852 42.3487 98.5575 42.3616 98.6096 42.401C98.6558 42.3942 98.725 42.384 98.8174 42.3703C98.9619 42.3961 99.1846 42.481 99.4855 42.6251C100.029 42.8276 100.277 43.2862 100.228 44.0009C100.032 47.5676 99.8521 51.0846 99.6896 54.5519C99.5272 58.0192 99.3707 61.5327 99.2202 65.0926C99.204 65.3308 99.1878 65.5691 99.1716 65.8073C99.2016 66.0387 99.2085 66.2735 99.1923 66.5117C99.2283 66.7894 99.2954 66.9446 99.3937 66.9772C99.4459 67.0166 99.4951 67.0329 99.5412 67.0261C99.6336 67.0124 99.7199 66.9525 99.8002 66.8462C99.8806 66.74 99.9609 66.6338 100.041 66.5276C100.122 66.4213 100.176 66.2954 100.204 66.1497C100.278 65.9972 100.356 65.8678 100.436 65.7616C101.902 63.2804 103.346 60.8027 104.766 58.3284C106.18 55.8078 107.621 53.3069 109.087 50.8258C109.397 50.3083 109.683 49.7942 109.946 49.2836C110.203 48.7267 110.487 48.1895 110.796 47.672C111.099 47.1082 111.38 46.5479 111.637 45.991C111.94 45.4272 112.243 44.8635 112.547 44.2997C112.661 44.0941 112.802 43.9082 112.969 43.742C113.181 43.569 113.403 43.4654 113.634 43.4312C114.05 43.3697 114.489 43.4933 114.952 43.8021C115.462 44.104 115.698 44.47 115.659 44.9002C115.665 44.9465 115.634 45.069 115.566 45.2678C115.497 45.4666 115.53 45.7211 115.665 46.0314ZM137.094 58.8486C136.685 57.8714 136.44 56.7049 136.359 55.3491C136.323 55.0715 136.277 54.5358 136.221 53.7422C136.165 52.9486 136.156 52.1482 136.192 51.3409C136.223 50.4874 136.315 49.7427 136.468 49.1069C136.661 48.418 136.965 48.0428 137.38 47.9813C137.611 47.9471 137.851 47.9823 138.1 48.087C138.343 48.1454 138.562 48.2072 138.759 48.2724C139.106 48.4097 139.289 48.5477 139.307 48.6866C139.371 48.8186 139.361 49.1031 139.276 49.5401C138.747 52.3542 138.846 55.1223 139.575 57.8445C139.581 57.8907 139.611 57.9336 139.663 57.973C139.715 58.0125 139.744 58.0554 139.75 58.1016C140.073 58.0538 140.349 57.8242 140.578 57.413C140.881 56.8492 141.162 56.2889 141.419 55.732C141.722 55.1682 142 54.5848 142.251 53.9815C143.045 52.1188 143.815 50.2595 144.563 48.4036C145.311 46.5478 146.078 44.6653 146.866 42.7563C148.008 39.9459 149.181 37.2016 150.387 34.5232C151.586 31.7985 152.957 29.1194 154.497 26.4857C154.726 26.0745 155.049 25.8381 155.464 25.7766C155.556 25.7629 155.629 25.7758 155.681 25.8152C155.773 25.8016 155.866 25.7879 155.958 25.7742C156.68 25.9031 157.187 26.1819 157.478 26.6105C157.809 26.986 157.933 27.5808 157.85 28.3949C157.824 28.9177 157.777 29.467 157.711 30.0428C157.644 30.6187 157.574 31.1714 157.502 31.701C157.252 33.7662 157.022 35.8049 156.812 37.817C156.602 39.8291 156.557 41.8404 156.676 43.8509C156.7 44.0361 156.701 44.2246 156.679 44.4166C156.703 44.6017 156.753 44.8065 156.829 45.0311C156.847 45.1699 156.925 45.2291 157.064 45.2086C157.202 45.1881 157.369 45.0219 157.564 44.7101C157.805 44.3914 157.963 44.1558 158.037 44.0033C158.621 43.0677 159.18 42.1124 159.712 41.1374C160.291 40.1556 160.872 39.1969 161.457 38.2613C162.339 36.7157 163.27 35.1865 164.25 33.6735C165.224 32.1142 166.228 30.5978 167.26 29.1243C167.461 28.8587 167.662 28.5931 167.863 28.3276C168.063 28.062 168.287 27.793 168.534 27.5206C168.948 27.082 169.34 26.8354 169.709 26.7807C170.032 26.7329 170.367 26.7776 170.714 26.9148C171.27 27.2099 171.693 27.5718 171.984 28.0004C172.315 28.3759 172.413 28.951 172.278 29.7256C172.131 30.4077 172.01 31.1095 171.916 31.8311C171.815 32.5063 171.694 33.2081 171.553 33.9365C171.056 36.2741 170.652 38.5981 170.339 40.9084C170.021 43.1724 169.801 45.469 169.679 47.7982C169.61 49.082 169.564 50.3623 169.542 51.6392C169.565 52.9092 169.678 54.1425 169.88 55.3389C169.974 55.7024 170.045 56.0692 170.093 56.4394C170.187 56.8028 170.287 57.2125 170.393 57.6685C170.957 57.3019 171.38 56.9328 171.661 56.561C171.982 56.1361 172.304 55.7111 172.625 55.2862C173.417 54.1314 174.182 52.9568 174.921 51.7625C175.706 50.5614 176.466 49.3405 177.199 48.1C177.772 47.0718 178.347 46.0669 178.926 45.085C179.504 44.1032 180.106 43.1179 180.731 42.1293C181.269 41.2005 181.746 40.7054 182.161 40.6439C182.531 40.5892 182.869 40.6571 183.176 40.8475C183.529 41.031 183.836 41.2214 184.097 41.4187C184.074 41.6106 183.834 42.1178 183.376 42.9403C182.964 43.756 182.429 44.7079 181.77 45.7959C181.111 46.884 180.395 48.0749 179.622 49.3686C178.842 50.616 178.057 51.8171 177.266 52.9719C176.52 54.12 175.809 55.1686 175.132 56.1178C174.496 57.0139 173.991 57.6547 173.617 58.0402C172.836 58.9105 171.984 59.414 171.06 59.5507C170.229 59.6737 169.484 59.5483 168.824 59.1743C168.158 58.7541 167.722 58.1112 167.515 57.2455C167.339 56.6113 167.206 55.947 167.116 55.2528C167.02 54.5123 166.95 53.7916 166.907 53.0906C166.729 50.9943 166.736 48.8707 166.928 46.7197C167.114 44.5225 167.372 42.3382 167.703 40.1667C167.882 39.0082 168.064 37.8727 168.249 36.7605C168.475 35.5951 168.7 34.4297 168.926 33.2643C168.988 33.0192 169.03 32.8007 169.052 32.6087C169.075 32.4168 169.027 32.2351 168.911 32.0636C168.628 32.0584 168.429 32.1585 168.315 32.3642C168.194 32.5235 168.077 32.706 167.962 32.9116C166.673 34.9421 165.409 36.9923 164.172 39.0622C162.975 41.0789 161.757 43.1223 160.52 45.1922C160.09 45.869 159.634 46.5261 159.152 47.1635C158.664 47.7546 157.981 48.1151 157.104 48.2449C156.597 48.3201 156.091 48.2299 155.587 47.9743C155.13 47.7118 154.77 47.2934 154.507 46.7191C154.192 46.1054 154.039 45.4677 154.048 44.8061C153.984 43.5892 153.924 42.3954 153.866 41.2247C153.855 40.0472 153.933 38.8329 154.1 37.5818C154.235 36.8071 154.327 36.0624 154.375 35.3477C154.424 34.633 154.472 33.9183 154.521 33.2036C154.145 33.212 153.901 33.319 153.786 33.5247C153.718 33.7234 153.649 33.9222 153.581 34.121L144.999 54.4944C144.714 55.197 144.402 55.8799 144.065 56.5431C143.773 57.1994 143.41 57.8428 142.974 58.4733C142.67 59.0371 142.309 59.5151 141.889 59.9074C141.516 60.2929 141.029 60.5301 140.429 60.6189C139.69 60.7283 139.02 60.6388 138.418 60.3506C137.862 60.0555 137.421 59.5549 137.094 58.8486ZM182.175 49.8395C181.647 47.9367 181.48 45.7445 181.676 43.2628C181.871 42.9509 181.901 42.6398 181.767 42.3295C181.673 41.9661 181.694 41.5857 181.831 41.1881C182.35 39.7434 182.868 38.2988 183.387 36.8542C183.905 35.4095 184.545 33.9941 185.307 32.6078C185.731 31.8847 186.221 31.1282 186.777 30.3384C187.374 29.4954 187.999 28.6952 188.654 27.938C189.355 27.1738 190.094 26.522 190.871 25.9825C191.694 25.4361 192.521 25.1014 193.352 24.9784C193.998 24.8827 194.57 24.9395 195.068 25.1489C195.611 25.3514 196.075 25.6601 196.458 26.0751C196.835 26.4437 197.086 26.9255 197.21 27.5203C197.38 28.1082 197.369 28.7467 197.176 29.4356C196.83 30.7604 196.244 32.0499 195.418 33.3041C194.639 34.5515 193.709 35.7269 192.629 36.8302C191.589 37.8803 190.467 38.8482 189.264 39.7338C188.062 40.6193 186.884 41.3361 185.732 41.884C185.242 42.0981 184.9 42.361 184.705 42.6728C184.51 42.9847 184.397 43.3789 184.364 43.8553C184.138 46.1057 184.29 48.1822 184.818 50.085C185.213 51.6774 185.918 52.3985 186.933 52.2481C187.718 52.1319 188.565 51.7707 189.475 51.1643C190.384 50.558 191.259 49.8626 192.098 49.0779C192.978 48.2402 193.785 47.3896 194.52 46.5261C195.255 45.6626 195.866 44.9353 196.354 44.3442C197.083 43.4344 197.789 42.5281 198.472 41.6251C199.195 40.6691 199.921 39.7361 200.65 38.8264C201.259 38.0759 201.794 37.6665 202.256 37.5982C202.486 37.564 202.7 37.5795 202.897 37.6448C203.093 37.71 203.342 37.8147 203.643 37.9588C204.101 38.2212 204.149 38.5915 203.787 39.0695C201.939 41.5128 200.042 43.9397 198.096 46.3504C197.482 47.0545 196.804 47.8152 196.063 48.6324C195.368 49.4428 194.595 50.194 193.744 50.8861C192.892 51.5781 192.006 52.181 191.085 52.6948C190.209 53.2017 189.287 53.527 188.317 53.6705C186.886 53.8824 185.612 53.6701 184.495 53.0337C183.371 52.351 182.598 51.2863 182.175 49.8395ZM185.698 38.3515C185.664 38.4509 185.633 38.5735 185.604 38.7191C185.622 38.858 185.686 38.99 185.797 39.1151C185.843 39.1083 185.892 39.1246 185.944 39.1641C185.99 39.1572 186.057 39.1238 186.143 39.0639C186.966 38.5175 187.841 37.822 188.766 36.9775C189.692 36.1329 190.562 35.2258 191.378 34.2561C192.193 33.2863 192.91 32.284 193.529 31.249C194.142 30.1678 194.524 29.1207 194.675 28.1079C194.737 27.8628 194.779 27.6443 194.801 27.4523C194.824 27.2604 194.753 27.0821 194.591 26.9175C194.487 26.8386 194.365 26.8094 194.227 26.8299C194.134 26.8436 194.002 26.9103 193.829 27.0302C193.697 27.097 193.587 27.1604 193.501 27.2203C192.62 27.681 191.768 28.373 190.947 29.2965C190.166 30.1668 189.42 31.1263 188.709 32.1749C188.044 33.2167 187.454 34.2945 186.94 35.4084C186.419 36.4759 186.005 37.457 185.698 38.3515ZM202.42 53.4929C201.768 53.5423 201.417 53.1933 201.367 52.446C201.337 52.2146 201.327 51.9567 201.337 51.6721C201.348 51.3876 201.358 51.1031 201.368 50.8186C201.499 46.7428 201.586 42.697 201.631 38.6812C201.721 34.6586 201.832 30.6094 201.962 26.5336C202.013 26.196 202.02 25.8883 201.984 25.6107C201.988 25.2799 202.019 24.9688 202.075 24.6774C202.123 23.9627 202.379 23.5712 202.84 23.5029C203.071 23.4687 203.311 23.5039 203.56 23.6086C203.849 23.6602 204.117 23.7383 204.366 23.8429C204.707 23.9339 204.856 24.1714 204.811 24.5553C204.841 24.7867 204.84 25.1406 204.808 25.6171C204.742 28.7399 204.699 31.8593 204.679 34.9753C204.7 38.0382 204.608 41.1413 204.403 44.2846C204.415 44.3772 204.404 44.4732 204.37 44.5726C204.382 44.6651 204.394 44.7577 204.406 44.8502C204.424 44.9891 204.485 45.098 204.589 45.1768C204.635 45.17 204.661 45.1897 204.667 45.236C204.667 45.236 204.691 45.2326 204.737 45.2258C204.829 45.2121 204.956 45.099 205.116 44.8866C205.197 44.7803 205.257 44.7007 205.297 44.6476C205.331 44.5482 205.388 44.4453 205.469 44.3391C207.807 40.5969 210.096 36.8384 212.336 33.0635C214.576 29.2887 216.734 25.4315 218.812 21.4921C218.92 21.2402 219.029 20.9883 219.137 20.7364C219.286 20.4313 219.437 20.1495 219.592 19.8907C219.833 19.572 220.069 19.3956 220.3 19.3614C220.392 19.3478 220.464 19.3607 220.517 19.4001C220.563 19.3933 220.609 19.3864 220.655 19.3796C220.898 19.438 221.098 19.5263 221.254 19.6447C221.457 19.7562 221.656 19.8445 221.853 19.9098C222.304 20.1259 222.451 20.5288 222.292 21.1183C221.626 24.33 221.078 27.5477 220.649 30.7715C220.26 33.9422 220.018 37.1617 219.924 40.4302C219.891 41.9917 219.927 43.5428 220.033 45.0837C220.132 46.5783 220.347 48.0559 220.677 49.5163C220.76 49.7872 220.819 50.0615 220.855 50.3391C220.937 50.61 221.042 50.8774 221.17 51.1414C221.299 51.4054 221.478 51.5203 221.709 51.4862C221.94 51.452 222.279 51.1659 222.727 50.6279C223.221 50.0831 223.746 49.4158 224.303 48.6259C224.899 47.7829 225.513 46.8902 226.143 45.9478C226.768 44.9591 227.353 44.0236 227.897 43.1411C228.441 42.2587 228.925 41.4559 229.349 40.7328C229.773 40.0097 230.062 39.5188 230.217 39.2601C230.762 38.3776 231.286 37.5218 231.79 36.6924C232.288 35.8168 232.81 34.9378 233.354 34.0553C233.738 33.3854 234.137 33.0196 234.553 32.9581C234.83 32.9171 235.188 32.9584 235.627 33.082C236.067 33.2056 236.351 33.3994 236.479 33.6634C236.445 33.7628 236.431 33.8357 236.437 33.8819C236.443 33.9282 236.429 34.0011 236.394 34.1005C234.882 36.5884 233.372 39.0996 231.866 41.6338C230.399 44.115 228.785 46.5472 227.024 48.9305C226.622 49.4617 226.22 49.9928 225.819 50.524C225.457 51.002 225.047 51.4637 224.587 51.9091C223.8 52.7332 222.921 53.217 221.952 53.3605C221.167 53.4767 220.5 53.4104 219.95 53.1616C219.452 52.9523 219.035 52.6367 218.698 52.2149C218.407 51.7863 218.177 51.278 218.007 50.69C217.836 50.1021 217.689 49.5107 217.565 48.9159C217.245 47.1709 217.043 45.432 216.96 43.6991C216.917 41.9131 216.966 40.1135 217.107 38.3002C217.188 37.109 217.272 35.941 217.359 34.7961C217.44 33.6049 217.59 32.4035 217.81 31.1918C217.872 30.9468 217.888 30.7085 217.858 30.4771C217.874 30.2389 217.891 30.0006 217.907 29.7624C217.855 29.723 217.782 29.7101 217.69 29.7237C217.505 29.7511 217.299 29.9704 217.07 30.3816C215.752 32.5578 214.428 34.6876 213.098 36.7712C211.815 38.8479 210.537 40.9709 209.266 43.1402C208.372 44.5933 207.524 46.0395 206.722 47.4788C205.961 48.8651 205.304 50.3302 204.751 51.8743C204.311 52.8356 203.699 53.3743 202.914 53.4905C202.683 53.5247 202.518 53.5255 202.42 53.4929ZM234.898 39.5577C234.503 37.9652 234.287 36.2991 234.25 34.5594C234.254 34.2286 234.272 33.6365 234.302 32.7829C234.333 31.9294 234.372 30.9567 234.418 29.8649C234.511 28.7663 234.621 27.618 234.748 26.42C234.875 25.222 235.015 24.1166 235.166 23.1037C235.363 22.084 235.558 21.2296 235.751 20.5407C235.984 19.7987 236.259 19.3806 236.577 19.2865C236.854 19.2454 237.232 19.2602 237.711 19.3307C238.231 19.3481 238.538 19.5385 238.632 19.9019C238.703 20.0802 238.712 20.3381 238.662 20.6757C238.226 22.3912 237.908 24.1128 237.708 25.8403C237.554 27.5611 237.401 29.2819 237.247 31.0026C237.172 32.2401 237.144 33.4707 237.161 34.6945C237.225 35.9114 237.381 37.1147 237.629 38.3043C237.641 38.3969 237.665 38.582 237.701 38.8597C237.777 39.0842 237.856 39.3319 237.938 39.6028C238.02 39.8736 238.099 40.1213 238.175 40.3459C238.292 40.5173 238.419 40.5928 238.558 40.5723C238.65 40.5586 238.779 40.4687 238.946 40.3025C239.107 40.0901 239.268 39.8776 239.428 39.6652C239.635 39.4459 239.819 39.23 239.979 39.0175C240.134 38.7588 240.232 38.6029 240.272 38.5498C241.178 37.1893 242.031 35.7894 242.833 34.35C243.634 32.9106 244.436 31.4713 245.238 30.0319C246.079 28.5394 246.927 27.0932 247.781 25.6933C248.681 24.2866 249.653 22.8927 250.697 21.5117C250.898 21.2462 251.122 20.9772 251.369 20.7048C251.61 20.3861 251.854 20.0905 252.101 19.8181C252.428 19.4395 252.823 19.216 253.284 19.1476C253.608 19.0998 253.841 19.0888 253.986 19.1145C254.807 19.276 255.33 19.5051 255.557 19.8017C255.784 20.0983 255.835 20.6803 255.713 21.5475C255.523 22.9905 255.334 24.4336 255.144 25.8767C255.001 27.3129 254.835 28.7526 254.645 30.1957C254.379 32.4991 254.271 34.7555 254.322 36.9648C254.367 39.1279 254.6 41.2868 255.02 43.4414C255.038 43.5802 255.091 43.8082 255.179 44.1254C255.267 44.4425 255.358 44.7827 255.453 45.1462C255.587 45.4564 255.741 45.7402 255.916 45.9974C256.09 46.2545 256.27 46.3694 256.454 46.3421C256.547 46.3284 256.676 46.2385 256.843 46.0723C257.004 45.8599 257.161 45.6243 257.316 45.3655C257.517 45.1 257.697 44.861 257.858 44.6485C258.059 44.3829 258.177 44.2004 258.211 44.101C258.87 43.013 259.482 41.9318 260.049 40.8574C260.656 39.7298 261.285 38.5989 261.938 37.4646C262.545 36.3371 263.132 35.2361 263.698 34.1617C264.259 33.041 264.842 31.9169 265.449 30.7894C265.638 30.4313 265.807 30.0997 265.955 29.7947C266.15 29.4828 266.342 29.1479 266.531 28.7897C266.754 28.3322 267.096 28.0693 267.558 28.0009C267.789 27.9667 268.026 27.9788 268.268 28.0372C268.557 28.0888 268.823 28.1438 269.066 28.2021C269.558 28.3652 269.646 28.6823 269.33 29.1535C268.838 30.0754 268.346 30.9973 267.854 31.9192C267.362 32.8411 266.869 33.763 266.377 34.6848C265.278 36.7342 264.213 38.6843 263.183 40.5349C262.146 42.3392 260.974 44.1872 259.667 46.0788C259.225 46.663 258.699 47.1419 258.088 47.5152C257.478 47.8886 256.827 48.1265 256.134 48.229C255.442 48.3316 254.818 48.2353 254.262 47.9402C253.706 47.6452 253.268 47.1676 252.947 46.5076C252.556 45.6693 252.258 44.8173 252.051 43.9517C251.885 43.0329 251.742 42.1107 251.623 41.1851C251.335 38.9637 251.246 36.6421 251.355 34.2203C251.511 31.7916 251.778 29.4882 252.154 27.3099C252.233 26.8266 252.268 26.3733 252.26 25.9499C252.293 25.4735 252.328 25.0201 252.366 24.5899C252.388 24.398 252.307 24.3157 252.123 24.343C251.944 24.4166 251.774 24.5597 251.614 24.7721C251.453 24.9846 251.335 25.1671 251.261 25.3196C250.717 26.202 250.152 27.111 249.568 28.0466C248.983 28.9821 248.422 29.9143 247.883 30.843C247.15 32.0836 246.417 33.3241 245.684 34.5647C244.991 35.7522 244.274 36.9431 243.535 38.1374C243.266 38.6017 242.954 39.0961 242.598 39.6204C242.237 40.0984 241.849 40.5567 241.435 40.9953C241.022 41.4339 240.576 41.8065 240.098 42.113C239.62 42.4196 239.104 42.6139 238.55 42.6959C237.35 42.8736 236.5 42.6693 236.001 42.0829C235.542 41.4433 235.174 40.6016 234.898 39.5577Z" fill="url(#paint0_linear_366_56)"/>
<defs>
<linearGradient id="paint0_linear_366_56" x1="2.05173" y1="76.7038" x2="271.047" y2="41.4197" gradientUnits="userSpaceOnUse">
<stop stop-color="#BC3314"/>
<stop offset="1" stop-color="#C93D1E"/>
</linearGradient>
</defs>
</svg>
