<svg width="104" height="23" viewBox="0 0 104 23" fill="none" xmlns="http://www.w3.org/2000/svg">
<path d="M9.45469 18.288C7.64669 18.288 5.95069 18.04 4.36669 17.544C2.78269 17.048 1.53469 16.4 0.622688 15.6L2.73469 13.56C3.61469 14.248 4.63069 14.76 5.78269 15.096C6.95069 15.416 8.15869 15.576 9.40669 15.576C10.5587 15.576 11.6387 15.448 12.6467 15.192C13.6547 14.92 14.4627 14.56 15.0707 14.112C15.6787 13.664 15.9827 13.176 15.9827 12.648C15.9827 12.04 15.7187 11.592 15.1907 11.304C14.6787 11 14.0307 10.816 13.2467 10.752C12.4627 10.672 11.3667 10.624 9.95869 10.608C8.03869 10.576 6.49469 10.48 5.32669 10.32C4.15869 10.16 3.15069 9.768 2.30269 9.144C1.45469 8.504 1.03069 7.512 1.03069 6.168C1.03069 5.16 1.45469 4.256 2.30269 3.456C3.16669 2.656 4.33469 2.032 5.80669 1.584C7.29469 1.12 8.92669 0.887999 10.7027 0.887999C12.4787 0.887999 14.0227 1.088 15.3347 1.488C16.6627 1.872 17.9027 2.416 19.0547 3.12L17.5907 5.52C16.6147 4.832 15.5347 4.328 14.3507 4.008C13.1667 3.688 11.9667 3.528 10.7507 3.528C9.63069 3.528 8.58269 3.656 7.60669 3.912C6.63069 4.152 5.84669 4.48 5.25469 4.896C4.67869 5.296 4.39069 5.728 4.39069 6.192C4.39069 6.592 4.59869 6.888 5.01469 7.08C5.43069 7.272 5.94269 7.4 6.55069 7.464C7.17469 7.512 8.09469 7.552 9.31069 7.584C11.3267 7.616 13.0067 7.736 14.3507 7.944C15.6947 8.152 16.8547 8.656 17.8307 9.456C18.8227 10.24 19.3187 11.456 19.3187 13.104C19.3187 14.096 18.8707 14.992 17.9747 15.792C17.0947 16.576 15.8947 17.192 14.3747 17.64C12.8707 18.072 11.2307 18.288 9.45469 18.288ZM32.1165 18.36C30.1485 18.36 28.3245 18.072 26.6445 17.496C24.9805 16.904 23.6605 16.12 22.6845 15.144C21.7085 14.168 21.2205 13.12 21.2205 12C21.2205 10.864 21.7085 9.808 22.6845 8.832C23.6605 7.84 24.9805 7.056 26.6445 6.48C28.3245 5.888 30.1485 5.592 32.1165 5.592C34.0845 5.592 35.9005 5.888 37.5645 6.48C39.2285 7.056 40.5485 7.84 41.5245 8.832C42.5005 9.808 42.9885 10.864 42.9885 12C42.9885 13.12 42.5005 14.168 41.5245 15.144C40.5485 16.12 39.2205 16.904 37.5405 17.496C35.8765 18.072 34.0685 18.36 32.1165 18.36ZM24.3405 11.928C24.3405 12.648 24.7325 13.28 25.5165 13.824C26.3005 14.368 27.2925 14.784 28.4925 15.072C29.7085 15.36 30.9165 15.504 32.1165 15.504C33.2845 15.504 34.4685 15.368 35.6685 15.096C36.8845 14.808 37.8845 14.4 38.6685 13.872C39.4685 13.328 39.8685 12.696 39.8685 11.976C39.8685 11.272 39.4685 10.656 38.6685 10.128C37.8845 9.584 36.8845 9.168 35.6685 8.88C34.4685 8.592 33.2845 8.448 32.1165 8.448C30.9325 8.448 29.7325 8.592 28.5165 8.88C27.3165 9.152 26.3165 9.552 25.5165 10.08C24.7325 10.608 24.3405 11.224 24.3405 11.928ZM46.9352 8.856H45.1352V6H46.9352V4.68C46.9352 4.072 47.1432 3.504 47.5592 2.976C47.9912 2.432 48.5272 2 49.1672 1.68C49.8232 1.36 50.4552 1.2 51.0632 1.2H62.8952V4.056H51.4232C50.8312 4.056 50.4472 4.136 50.2712 4.296C50.0952 4.456 50.0072 4.744 50.0072 5.16V6H58.9112V8.856H50.0072V17.976H46.9352V8.856ZM62.127 6.024H65.247V9.336C65.247 10.184 65.543 10.92 66.135 11.544C66.743 12.152 67.551 12.616 68.559 12.936C69.567 13.256 70.663 13.416 71.847 13.416C73.639 13.416 75.143 13.072 76.359 12.384C77.591 11.696 78.279 10.68 78.423 9.336V6.024H81.543V16.176C81.527 17.552 81.055 18.736 80.127 19.728C79.199 20.736 77.991 21.504 76.503 22.032C75.031 22.56 73.479 22.824 71.847 22.824C70.295 22.824 68.759 22.552 67.239 22.008C65.719 21.48 64.471 20.688 63.495 19.632C62.535 18.592 62.079 17.336 62.127 15.864H65.247C65.247 16.712 65.535 17.44 66.111 18.048C66.703 18.672 67.495 19.144 68.487 19.464C69.479 19.784 70.559 19.944 71.727 19.944C73.551 19.944 75.087 19.6 76.335 18.912C77.583 18.224 78.279 17.208 78.423 15.864V14.544C77.575 15.072 76.575 15.496 75.423 15.816C74.287 16.12 73.095 16.272 71.847 16.272C70.391 16.272 68.911 16.024 67.407 15.528C65.919 15.016 64.663 14.232 63.639 13.176C62.631 12.104 62.127 10.776 62.127 9.192V6.024ZM93.9039 18.36C92.1439 18.36 90.5199 18.072 89.0319 17.496C87.5599 16.904 86.3919 16.12 85.5279 15.144C84.6639 14.168 84.2319 13.12 84.2319 12C84.2319 10.864 84.6639 9.808 85.5279 8.832C86.3919 7.84 87.5599 7.056 89.0319 6.48C90.5199 5.888 92.1439 5.592 93.9039 5.592C95.1679 5.592 96.3679 5.752 97.5039 6.072C98.6399 6.376 99.6479 6.808 100.528 7.368L100.744 6H103.552V18H100.744L100.552 16.584C99.6559 17.144 98.6399 17.584 97.5039 17.904C96.3679 18.208 95.1679 18.36 93.9039 18.36ZM87.3039 11.976C87.3039 12.632 87.6079 13.232 88.2159 13.776C88.8239 14.304 89.6319 14.728 90.6399 15.048C91.6479 15.352 92.7359 15.504 93.9039 15.504C95.0719 15.504 96.1599 15.352 97.1679 15.048C98.1759 14.728 98.9839 14.304 99.5919 13.776C100.2 13.232 100.504 12.632 100.504 11.976C100.504 11.384 100.192 10.816 99.5679 10.272C98.9599 9.728 98.1439 9.288 97.1199 8.952C96.1119 8.616 95.0399 8.448 93.9039 8.448C92.7519 8.448 91.6639 8.616 90.6399 8.952C89.6319 9.288 88.8239 9.728 88.2159 10.272C87.6079 10.816 87.3039 11.384 87.3039 11.976Z" fill="#232323"/>
</svg>
